name C:\Users\u0101727\Documents\MyRepositories\paper-ad\predictivesimulations_2d/Results/PredSim_2D/IK_c24.mot
datacolumns 11
datarows 21
range 1.27594384 1.46781509
endheader
time	pelvis_tilt	pelvis_tx	pelvis_ty	hip_flexion_l	hip_flexion_r	knee_angle_l	knee_angle_r	ankle_angle_l	ankle_angle_r	lumbar_extension	
          1.27594384	        -15.08064223	          1.69367649	          0.90067059	         33.17265246	         10.34591447	        -37.56641106	         -7.28843558	         15.70330999	         11.31048745	          9.39267908	
          1.28553740	        -15.07995468	          1.70566434	          0.89981098	         34.14127249	          9.57018973	        -36.09375477	         -7.33624494	         15.98893671	         11.32102194	          9.35284223	
          1.29513096	        -15.08033983	          1.71770779	          0.89889354	         35.04875804	          8.81212924	        -34.50444382	         -7.41981586	         16.19365545	         11.31923857	          9.31626208	
          1.30472452	        -15.08218627	          1.72981331	          0.89791715	         35.89163748	          8.07069184	        -32.80627753	         -7.53810932	         16.32658444	         11.30876064	          9.28324614	
          1.31431809	        -15.08581700	          1.74198902	          0.89688067	         36.66531487	          7.34552987	        -31.01070245	         -7.69141587	         16.39650445	         11.29042222	          9.25418085	
          1.32391165	        -15.09130404	          1.75424689	          0.89578675	         37.36307577	          6.63752784	        -29.14387185	         -7.88337478	         16.41155753	         11.26263053	          9.22965618	
          1.33350521	        -15.09867856	          1.76660514	          0.89464776	         37.97196276	          5.94871202	        -27.23997576	         -8.12020453	         16.37902983	         11.21936114	          9.21097434	
          1.34309878	        -15.10796494	          1.77908525	          0.89348538	         38.47617899	          5.28223493	        -25.33122176	         -8.40902122	         16.30531759	         11.14820464	          9.19985610	
          1.35269234	        -15.11884681	          1.79170598	          0.89232211	         38.86631183	          4.64249902	        -23.44543905	         -8.75827782	         16.19581271	         11.03287295	          9.19748685	
          1.36228590	        -15.13052852	          1.80448191	          0.89117594	         39.14224373	          4.03475697	        -21.60450441	         -9.17780467	         16.05464265	         10.85683851	          9.20427174	
          1.37187946	        -15.14179643	          1.81742590	          0.89006117	         39.31085136	          3.46430020	        -19.83004195	         -9.67793671	         15.88440875	         10.60581977	          9.22013895	
          1.38147303	        -15.15142920	          1.83055180	          0.88898996	         39.37936322	          2.93601808	        -18.13686302	        -10.26836174	         15.68630668	         10.26696143	          9.24517788	
          1.39106659	        -15.15828280	          1.84387408	          0.88797149	         39.35461421	          2.45434089	        -16.53676595	        -10.95764333	         15.46023360	          9.82811673	          9.27962602	
          1.40066015	        -15.16110213	          1.85740691	          0.88701103	         39.24420852	          2.02388461	        -15.04679887	        -11.75477953	         15.20490973	          9.27843796	          9.32362095	
          1.41025371	        -15.15862382	          1.87116471	          0.88610963	         39.05319121	          1.65016508	        -13.68150298	        -12.67005370	         14.91832093	          8.60695423	          9.37745432	
          1.41984728	        -15.14944395	          1.88516105	          0.88526300	         38.78633145	          1.33908914	        -12.46071863	        -13.71438743	         14.59759015	          7.80322427	          9.44137881	
          1.42944084	        -15.13200468	          1.89940770	          0.88445998	         38.44898511	          1.09631330	        -11.41323142	        -14.89798334	         14.23892080	          6.85973090	          9.51554399	
          1.43903440	        -15.10486329	          1.91391576	          0.88368149	         38.04148299	          0.92662437	        -10.56992067	        -16.23012895	         13.83795379	          5.77648675	          9.60053872	
          1.44862797	        -15.06682764	          1.92869348	          0.88289600	         37.55677238	          0.83294206	         -9.96444325	        -17.72379588	         13.38970942	          4.57584036	          9.69742491	
          1.45822153	        -15.01774145	          1.94373463	          0.88205968	         36.97685214	          0.81799435	         -9.64495909	        -19.38493771	         12.88939340	          3.27133631	          9.80734789	
          1.46781509	        -14.96016132	          1.95902216	          0.88119594	         36.23364949	          0.88902166	         -9.73200238	        -21.21043671	         12.33493762	          1.84295768	          9.93428126	
